<svg xmlns="http://www.w3.org/2000/svg" width="26" height="20" viewBox="0 0 26 20">
    <g fill="none" fill-rule="evenodd">
        <g fill="#FFF" fill-rule="nonzero">
            <g>
                <g>
                    <g>
                        <path d="M25.64 10.885l-8.667 8.748c-.774.781-2.115.235-2.115-.885v-5H7.842c-.686 0-1.238-.556-1.238-1.249v-5c0-.692.552-1.249 1.238-1.249h7.016v-5c0-1.113 1.336-1.665 2.115-.884l8.667 8.748c.48.49.48 1.281 0 1.77zM9.905 19.373V17.29c0-.344-.278-.625-.619-.625H4.953c-.914 0-1.651-.745-1.651-1.666V5c0-.921.737-1.666 1.65-1.666h4.334c.34 0 .62-.281.62-.625V.626c0-.344-.28-.625-.62-.625H4.953C2.218.001 0 2.241 0 5.001v9.998c0 2.76 2.218 4.999 4.953 4.999h4.333c.34 0 .62-.281.62-.625z" transform="translate(-168 -692) translate(47 672) translate(109 6) translate(12 14)"/>
                    </g>
                </g>
            </g>
        </g>
    </g>
</svg>
